<svg xmlns="http://www.w3.org/2000/svg" viewBox="0 0 32 32" width="32" height="32">
  <rect width="32" height="32" rx="7" fill="#0D0D0D" />
  <g fill="#C79A3A">
    <ellipse cx="9" cy="11" rx="2.6" ry="3.8" transform="rotate(-18 9 11)" />
    <ellipse cx="15" cy="8.5" rx="2.6" ry="4" transform="rotate(-6 15 8.5)" />
    <ellipse cx="20.5" cy="8.8" rx="2.6" ry="4" transform="rotate(8 20.5 8.8)" />
    <ellipse cx="25.5" cy="12.2" rx="2.3" ry="3.5" transform="rotate(22 25.5 12.2)" />
    <path d="M16 16.5c6.4-.6 11 3.2 10.6 8-.3 3.6-4 5-6.8 3.8-1.9-.8-2.2-3-3.8-3-1.6 0-1.9 2.2-3.8 3-2.8 1.2-6.5-.2-6.8-3.8-.5-4.8 4.2-8.6 10.6-8Z" />
  </g>
</svg>
